<?xml version="1.0" encoding="UTF-8"?>
<svg width="1034px" height="209px" viewBox="0 0 1034 209" version="1.1" xmlns="http://www.w3.org/2000/svg" xmlns:xlink="http://www.w3.org/1999/xlink">
    <title>Download App Fair</title>
    <g id="Page-1" stroke="none" stroke-width="1" fill="none" fill-rule="evenodd">
        <rect id="Rectangle" stroke="#AFAFAF" stroke-width="4" fill="#000000" x="1" y="1" width="1032" height="207" rx="40"></rect>
        <text id="Download-App-Fair" font-family="ui-rounded, system-ui, Arial Rounded MT Bold, HelveticaNeue, Helvetica Neue" font-size="72" font-weight="bold" fill="#FFFFFF">
            <tspan x="216" y="102">Download App Fair.app</tspan>
        </text>
        <text id="Requires-macOS-12" font-family="ui-rounded, system-ui, Arial Rounded MT Bold, HelveticaNeue, Helvetica Neue" font-size="44" font-weight="normal" fill="#FFFFFF">
            <tspan x="216" y="169">Requires macOS 12+</tspan>
        </text>
        <g transform="translate(42.000000, 39.000000)" fill="#FFFFFF" fill-rule="nonzero">
            <path d="M64.5,130 C73.3247822,130 81.6292352,128.297992 89.4133591,124.893976 C97.1974831,121.48996 104.055421,116.801606 109.987173,110.828916 C115.918925,104.856225 120.570668,97.9437751 123.942401,90.0915663 C127.314134,82.2393574 129,73.8650602 129,64.9686747 C129,56.0722892 127.314134,47.7084337 123.942401,39.8771084 C120.570668,32.0457831 115.918925,25.1333333 109.987173,19.139759 C104.055421,13.1461847 97.1870765,8.45783133 89.3821394,5.0746988 C81.5772023,1.69156627 73.2623427,0 64.4375605,0 C55.6127783,0 47.3083253,1.69156627 39.5242014,5.0746988 C31.7400774,8.45783133 24.892546,13.1461847 18.981607,19.139759 C13.070668,25.1333333 8.42933204,32.0457831 5.05759923,39.8771084 C1.68586641,47.7084337 0,56.0722892 0,64.9686747 C0,73.8650602 1.68586641,82.2393574 5.05759923,90.0915663 C8.42933204,97.9437751 13.0810745,104.856225 19.0128267,110.828916 C24.9445789,116.801606 31.8025169,121.48996 39.5866409,124.893976 C47.3707648,128.297992 55.6752178,130 64.5,130 Z M64.4375605,84.5783133 C63.7299129,84.5783133 63.0638916,84.4321285 62.4394966,84.139759 C61.8151016,83.8473896 61.2531462,83.4297189 60.7536302,82.886747 L39.3993224,61.5228916 C38.8998064,61.0216867 38.5147628,60.426506 38.2441917,59.7373494 C37.9736205,59.0481928 37.8383349,58.4321285 37.8383349,57.8891566 C37.8383349,56.3437751 38.2754114,55.1012048 39.1495644,54.1614458 C40.0237173,53.2216867 41.1684414,52.7518072 42.5837367,52.7518072 C43.3330106,52.7518072 43.9990319,52.897992 44.5818006,53.1903614 C45.1645692,53.4827309 45.6640852,53.8795181 46.0803485,54.3807229 L49.8891578,58.453012 L60.2541142,69.6674699 L59.4424008,58.7662651 L59.4424008,32.7036145 C59.4424008,31.1164659 59.9002904,29.8425703 60.8160697,28.8819277 C61.731849,27.9212851 62.9390126,27.4409639 64.4375605,27.4409639 C65.8528558,27.4409639 67.018393,27.9212851 67.9341723,28.8819277 C68.8499516,29.8425703 69.3078412,31.1164659 69.3078412,32.7036145 L69.3078412,58.7662651 L68.6210068,69.6048193 L78.7986447,58.453012 L82.857212,54.3807229 C83.3151016,53.8795181 83.8562439,53.4827309 84.4806389,53.1903614 C85.1050339,52.897992 85.7710552,52.7518072 86.4787028,52.7518072 C87.8107454,52.7518072 88.9138432,53.2425703 89.7879961,54.2240964 C90.6621491,55.2056225 91.0992256,56.4064257 91.0992256,57.826506 C91.0992256,58.4947791 90.9743466,59.1421687 90.7245886,59.7686747 C90.4748306,60.3951807 90.0793804,60.9799197 89.5382381,61.5228916 L68.1214908,82.886747 C67.6219748,83.4297189 67.0600194,83.8473896 66.4356244,84.139759 C65.8112294,84.4321285 65.1452081,84.5783133 64.4375605,84.5783133 Z M40.7105518,99.0506024 C39.3368829,99.0506024 38.2025653,98.5702811 37.3075992,97.6096386 C36.4126331,96.648996 35.96515,95.437751 35.96515,93.9759036 C35.96515,92.5975904 36.4126331,91.4281124 37.3075992,90.4674699 C38.2025653,89.5068273 39.3368829,89.026506 40.7105518,89.026506 L88.2270087,89.026506 C89.6006776,89.026506 90.7349952,89.5068273 91.6299613,90.4674699 C92.5249274,91.4281124 92.9724105,92.5975904 92.9724105,93.9759036 C92.9724105,95.437751 92.5249274,96.648996 91.6299613,97.6096386 C90.7349952,98.5702811 89.6006776,99.0506024 88.2270087,99.0506024 L40.7105518,99.0506024 Z" id="Shape"></path>
        </g>
    </g>
</svg>
